STARTFONT 2.1
FONT -URW-ITC Avant Garde-Medium-R-Normal-Sans-14-140-72-72-P-79-ISO8859-1
SIZE 14 72 72
FONTBOUNDINGBOX 20 18 -4 -3

STARTPROPERTIES 22
FONTNAME_REGISTRY "-"
FOUNDRY "URW"
FAMILY_NAME "ITC Avant Garde"
WEIGHT_NAME "Medium"
SLANT "R"
SETWIDTH_NAME "Normal"
ADD_STYLE_NAME "Sans"
PIXEL_SIZE 14
POINT_SIZE 140
RESOLUTION_X 72
RESOLUTION_Y 72
SPACING "P"
CHARSET_REGISTRY "ISO8859"
CHARSET_ENCODING "1"
FULL_NAME "AvantGarde-Book"
AVERAGE_WIDTH 79
WEIGHT 10
X_HEIGHT 8
QUAD_WIDTH 9
DEFAULT_CHAR 32
FONT_DESCENT 3
FONT_ASCENT 15
ENDPROPERTIES

CHARS 190

STARTCHAR space
ENCODING 32
SWIDTH 277 0
DWIDTH 4 0
BBX 1 1 0 0
BITMAP
00
ENDCHAR

STARTCHAR exclam
ENCODING 33
SWIDTH 295 0
DWIDTH 4 0
BBX 1 11 2 0
BITMAP
80
80
80
80
80
80
80
80
00
80
80
ENDCHAR

STARTCHAR quotedbl
ENCODING 34
SWIDTH 309 0
DWIDTH 4 0
BBX 3 3 1 8
BITMAP
A0
A0
A0
ENDCHAR

STARTCHAR numbersign
ENCODING 35
SWIDTH 554 0
DWIDTH 10 0
BBX 9 11 0 0
BITMAP
0900
0900
0900
7F80
1200
1200
FF80
2400
2400
2400
2400
ENDCHAR

STARTCHAR dollar
ENCODING 36
SWIDTH 554 0
DWIDTH 8 0
BBX 5 12 1 0
BITMAP
20
70
88
80
80
60
10
08
08
88
70
20
ENDCHAR

STARTCHAR percent
ENCODING 37
SWIDTH 775 0
DWIDTH 11 0
BBX 10 11 0 0
BITMAP
7100
8A00
8A00
8C00
7400
0800
0B80
1440
1440
2440
2380
ENDCHAR

STARTCHAR ampersand
ENCODING 38
SWIDTH 757 0
DWIDTH 11 0
BBX 9 11 1 0
BITMAP
3800
4400
4400
4400
3900
5100
8900
8600
8200
8500
7880
ENDCHAR

STARTCHAR quoteright
ENCODING 39
SWIDTH 351 0
DWIDTH 5 0
BBX 2 3 1 8
BITMAP
40
C0
80
ENDCHAR

STARTCHAR parenleft
ENCODING 40
SWIDTH 369 0
DWIDTH 5 0
BBX 3 13 1 -2
BITMAP
20
40
40
80
80
80
80
80
80
80
40
40
20
ENDCHAR

STARTCHAR parenright
ENCODING 41
SWIDTH 369 0
DWIDTH 5 0
BBX 3 13 1 -2
BITMAP
80
40
40
20
20
20
20
20
20
20
40
40
80
ENDCHAR

STARTCHAR asterisk
ENCODING 42
SWIDTH 425 0
DWIDTH 6 0
BBX 5 4 1 7
BITMAP
50
70
F8
50
ENDCHAR

STARTCHAR plus
ENCODING 43
SWIDTH 606 0
DWIDTH 8 0
BBX 7 7 1 1
BITMAP
10
10
10
FE
10
10
10
ENDCHAR

STARTCHAR comma
ENCODING 44
SWIDTH 277 0
DWIDTH 4 0
BBX 2 3 1 0
BITMAP
40
C0
80
ENDCHAR

STARTCHAR minus
ENCODING 45
SWIDTH 606 0
DWIDTH 8 0
BBX 7 1 1 4
BITMAP
FE
ENDCHAR

STARTCHAR period
ENCODING 46
SWIDTH 277 0
DWIDTH 4 0
BBX 1 2 1 0
BITMAP
80
80
ENDCHAR

STARTCHAR slash
ENCODING 47
SWIDTH 437 0
DWIDTH 6 0
BBX 5 13 1 -2
BITMAP
08
08
10
10
10
20
20
20
40
40
40
80
80
ENDCHAR

STARTCHAR zero
ENCODING 48
SWIDTH 554 0
DWIDTH 8 0
BBX 7 11 0 0
BITMAP
38
44
82
82
82
82
82
82
82
44
38
ENDCHAR

STARTCHAR one
ENCODING 49
SWIDTH 554 0
DWIDTH 8 0
BBX 2 11 3 0
BITMAP
C0
40
40
40
40
40
40
40
40
40
40
ENDCHAR

STARTCHAR two
ENCODING 50
SWIDTH 554 0
DWIDTH 8 0
BBX 7 11 0 0
BITMAP
78
84
82
02
02
04
08
10
60
80
FE
ENDCHAR

STARTCHAR three
ENCODING 51
SWIDTH 554 0
DWIDTH 8 0
BBX 7 11 0 0
BITMAP
38
44
04
04
18
04
02
02
82
84
78
ENDCHAR

STARTCHAR four
ENCODING 52
SWIDTH 554 0
DWIDTH 8 0
BBX 7 11 0 0
BITMAP
0C
0C
14
14
24
24
44
44
84
FE
04
ENDCHAR

STARTCHAR five
ENCODING 53
SWIDTH 554 0
DWIDTH 8 0
BBX 7 11 0 0
BITMAP
3C
20
40
78
44
02
02
02
82
84
78
ENDCHAR

STARTCHAR six
ENCODING 54
SWIDTH 554 0
DWIDTH 8 0
BBX 7 11 0 0
BITMAP
08
10
20
38
44
82
82
82
82
44
38
ENDCHAR

STARTCHAR seven
ENCODING 55
SWIDTH 554 0
DWIDTH 8 0
BBX 6 11 1 0
BITMAP
FC
04
04
08
08
10
10
20
20
40
40
ENDCHAR

STARTCHAR eight
ENCODING 56
SWIDTH 554 0
DWIDTH 8 0
BBX 7 11 0 0
BITMAP
38
44
44
44
38
44
82
82
82
44
38
ENDCHAR

STARTCHAR nine
ENCODING 57
SWIDTH 554 0
DWIDTH 8 0
BBX 7 11 0 0
BITMAP
38
44
82
82
82
44
3C
08
10
10
20
ENDCHAR

STARTCHAR colon
ENCODING 58
SWIDTH 277 0
DWIDTH 4 0
BBX 1 8 1 0
BITMAP
80
80
00
00
00
00
80
80
ENDCHAR

STARTCHAR semicolon
ENCODING 59
SWIDTH 277 0
DWIDTH 4 0
BBX 2 9 1 0
BITMAP
40
40
00
00
00
00
40
C0
80
ENDCHAR

STARTCHAR less
ENCODING 60
SWIDTH 606 0
DWIDTH 8 0
BBX 8 7 1 1
BITMAP
03
0C
30
C0
30
0C
03
ENDCHAR

STARTCHAR equal
ENCODING 61
SWIDTH 606 0
DWIDTH 8 0
BBX 7 4 1 3
BITMAP
FE
00
00
FE
ENDCHAR

STARTCHAR greater
ENCODING 62
SWIDTH 606 0
DWIDTH 8 0
BBX 8 7 0 1
BITMAP
C0
30
0C
03
0C
30
C0
ENDCHAR

STARTCHAR question
ENCODING 63
SWIDTH 591 0
DWIDTH 8 0
BBX 6 11 1 0
BITMAP
78
84
84
04
04
18
20
20
00
20
20
ENDCHAR

STARTCHAR at
ENCODING 64
SWIDTH 867 0
DWIDTH 12 0
BBX 10 11 1 0
BITMAP
1E00
2100
4C80
9340
A240
A240
A440
A480
5B00
2080
1F00
ENDCHAR

STARTCHAR A
ENCODING 65
SWIDTH 740 0
DWIDTH 10 0
BBX 10 11 0 0
BITMAP
0C00
0C00
1200
1200
1200
2100
3F00
4080
4080
4080
8040
ENDCHAR

STARTCHAR B
ENCODING 66
SWIDTH 574 0
DWIDTH 8 0
BBX 6 11 1 0
BITMAP
F0
88
88
88
F0
88
84
84
84
84
F8
ENDCHAR

STARTCHAR C
ENCODING 67
SWIDTH 813 0
DWIDTH 11 0
BBX 10 11 1 0
BITMAP
1F00
2080
4040
8000
8000
8000
8000
8000
4040
2080
1F00
ENDCHAR

STARTCHAR D
ENCODING 68
SWIDTH 744 0
DWIDTH 10 0
BBX 9 11 1 0
BITMAP
FC00
8200
8100
8080
8080
8080
8080
8080
8100
8200
FC00
ENDCHAR

STARTCHAR E
ENCODING 69
SWIDTH 536 0
DWIDTH 8 0
BBX 5 11 1 0
BITMAP
F8
80
80
80
80
F8
80
80
80
80
F8
ENDCHAR

STARTCHAR F
ENCODING 70
SWIDTH 485 0
DWIDTH 7 0
BBX 5 11 1 0
BITMAP
F8
80
80
80
80
F8
80
80
80
80
80
ENDCHAR

STARTCHAR G
ENCODING 71
SWIDTH 872 0
DWIDTH 12 0
BBX 11 11 1 0
BITMAP
1F00
2080
4040
8000
8000
8000
8FE0
8020
4040
2080
1F00
ENDCHAR

STARTCHAR H
ENCODING 72
SWIDTH 683 0
DWIDTH 10 0
BBX 7 11 1 0
BITMAP
82
82
82
82
82
FE
82
82
82
82
82
ENDCHAR

STARTCHAR I
ENCODING 73
SWIDTH 226 0
DWIDTH 3 0
BBX 1 11 1 0
BITMAP
80
80
80
80
80
80
80
80
80
80
80
ENDCHAR

STARTCHAR J
ENCODING 74
SWIDTH 482 0
DWIDTH 7 0
BBX 6 11 0 0
BITMAP
04
04
04
04
04
04
04
04
04
84
78
ENDCHAR

STARTCHAR K
ENCODING 75
SWIDTH 591 0
DWIDTH 8 0
BBX 7 11 1 0
BITMAP
82
84
88
90
90
A0
E0
90
88
84
82
ENDCHAR

STARTCHAR L
ENCODING 76
SWIDTH 462 0
DWIDTH 6 0
BBX 5 11 1 0
BITMAP
80
80
80
80
80
80
80
80
80
80
F8
ENDCHAR

STARTCHAR M
ENCODING 77
SWIDTH 919 0
DWIDTH 13 0
BBX 11 11 1 0
BITMAP
C060
C060
A0A0
A0A0
B1A0
9120
9120
8A20
8A20
8420
8420
ENDCHAR

STARTCHAR N
ENCODING 78
SWIDTH 740 0
DWIDTH 10 0
BBX 8 11 1 0
BITMAP
C1
C1
A1
A1
91
89
89
85
85
83
83
ENDCHAR

STARTCHAR O
ENCODING 79
SWIDTH 869 0
DWIDTH 12 0
BBX 11 11 1 0
BITMAP
1F00
2080
4040
8020
8020
8020
8020
8020
4040
2080
1F00
ENDCHAR

STARTCHAR P
ENCODING 80
SWIDTH 592 0
DWIDTH 8 0
BBX 7 11 1 0
BITMAP
F8
84
82
82
82
84
F8
80
80
80
80
ENDCHAR

STARTCHAR Q
ENCODING 81
SWIDTH 871 0
DWIDTH 12 0
BBX 11 11 1 0
BITMAP
1F00
2080
4040
8020
8020
8020
F820
8620
4140
2080
1F60
ENDCHAR

STARTCHAR R
ENCODING 82
SWIDTH 607 0
DWIDTH 8 0
BBX 7 11 1 0
BITMAP
F8
84
82
82
82
84
B8
90
88
84
82
ENDCHAR

STARTCHAR S
ENCODING 83
SWIDTH 498 0
DWIDTH 7 0
BBX 6 11 0 0
BITMAP
78
84
80
80
60
18
04
04
84
84
78
ENDCHAR

STARTCHAR T
ENCODING 84
SWIDTH 426 0
DWIDTH 6 0
BBX 5 11 0 0
BITMAP
F8
20
20
20
20
20
20
20
20
20
20
ENDCHAR

STARTCHAR U
ENCODING 85
SWIDTH 655 0
DWIDTH 9 0
BBX 7 11 1 0
BITMAP
82
82
82
82
82
82
82
82
82
44
38
ENDCHAR

STARTCHAR V
ENCODING 86
SWIDTH 702 0
DWIDTH 10 0
BBX 10 11 0 0
BITMAP
8040
4080
4080
4080
2100
2100
1200
1200
1200
0C00
0C00
ENDCHAR

STARTCHAR W
ENCODING 87
SWIDTH 960 0
DWIDTH 13 0
BBX 13 11 0 0
BITMAP
8208
8208
4518
4510
4510
4510
28A0
28A0
28A0
1040
1040
ENDCHAR

STARTCHAR X
ENCODING 88
SWIDTH 609 0
DWIDTH 9 0
BBX 8 11 0 0
BITMAP
81
42
24
24
18
18
18
24
24
42
81
ENDCHAR

STARTCHAR Y
ENCODING 89
SWIDTH 592 0
DWIDTH 8 0
BBX 9 11 0 0
BITMAP
8080
4100
4100
2200
1400
1400
0800
0800
0800
0800
0800
ENDCHAR

STARTCHAR Z
ENCODING 90
SWIDTH 480 0
DWIDTH 7 0
BBX 6 11 0 0
BITMAP
FC
04
08
08
10
10
20
40
40
80
FC
ENDCHAR

STARTCHAR bracketleft
ENCODING 91
SWIDTH 351 0
DWIDTH 5 0
BBX 2 13 2 -2
BITMAP
40
40
80
80
80
80
80
80
80
80
80
40
40
ENDCHAR

STARTCHAR backslash
ENCODING 92
SWIDTH 605 0
DWIDTH 8 0
BBX 5 11 1 0
BITMAP
80
40
40
40
20
20
10
10
10
08
08
ENDCHAR

STARTCHAR bracketright
ENCODING 93
SWIDTH 351 0
DWIDTH 5 0
BBX 2 13 1 -2
BITMAP
80
80
40
40
40
40
40
40
40
40
40
80
80
ENDCHAR

STARTCHAR asciicircum
ENCODING 94
SWIDTH 606 0
DWIDTH 9 0
BBX 8 8 1 3
BITMAP
18
18
24
24
24
42
42
81
ENDCHAR

STARTCHAR underscore
ENCODING 95
SWIDTH 500 0
DWIDTH 7 0
BBX 7 1 0 -2
BITMAP
FE
ENDCHAR

STARTCHAR quoteleft
ENCODING 96
SWIDTH 351 0
DWIDTH 5 0
BBX 2 3 2 8
BITMAP
80
C0
40
ENDCHAR

STARTCHAR a
ENCODING 97
SWIDTH 683 0
DWIDTH 10 0
BBX 8 8 1 0
BITMAP
3D
43
81
81
81
81
43
3D
ENDCHAR

STARTCHAR b
ENCODING 98
SWIDTH 682 0
DWIDTH 10 0
BBX 8 11 1 0
BITMAP
80
80
80
BC
C2
81
81
81
81
C2
BC
ENDCHAR

STARTCHAR c
ENCODING 99
SWIDTH 647 0
DWIDTH 9 0
BBX 7 8 1 0
BITMAP
3C
42
80
80
80
80
42
3C
ENDCHAR

STARTCHAR d
ENCODING 100
SWIDTH 685 0
DWIDTH 10 0
BBX 8 11 1 0
BITMAP
01
01
01
3D
43
81
81
81
81
43
3D
ENDCHAR

STARTCHAR e
ENCODING 101
SWIDTH 650 0
DWIDTH 9 0
BBX 8 8 1 0
BITMAP
3C
42
81
FF
80
80
43
3C
ENDCHAR

STARTCHAR f
ENCODING 102
SWIDTH 314 0
DWIDTH 4 0
BBX 3 11 1 0
BITMAP
20
40
40
E0
40
40
40
40
40
40
40
ENDCHAR

STARTCHAR g
ENCODING 103
SWIDTH 673 0
DWIDTH 9 0
BBX 8 11 1 -3
BITMAP
3D
43
81
81
81
81
43
3D
81
42
3C
ENDCHAR

STARTCHAR h
ENCODING 104
SWIDTH 610 0
DWIDTH 9 0
BBX 7 11 1 0
BITMAP
80
80
80
BC
C2
82
82
82
82
82
82
ENDCHAR

STARTCHAR i
ENCODING 105
SWIDTH 200 0
DWIDTH 3 0
BBX 1 11 1 0
BITMAP
80
80
00
80
80
80
80
80
80
80
80
ENDCHAR

STARTCHAR j
ENCODING 106
SWIDTH 203 0
DWIDTH 3 0
BBX 2 14 0 -3
BITMAP
40
40
00
40
40
40
40
40
40
40
40
40
40
80
ENDCHAR

STARTCHAR k
ENCODING 107
SWIDTH 502 0
DWIDTH 7 0
BBX 6 11 1 0
BITMAP
80
80
80
84
88
90
A0
E0
90
88
84
ENDCHAR

STARTCHAR l
ENCODING 108
SWIDTH 200 0
DWIDTH 3 0
BBX 1 11 1 0
BITMAP
80
80
80
80
80
80
80
80
80
80
80
ENDCHAR

STARTCHAR m
ENCODING 109
SWIDTH 938 0
DWIDTH 13 0
BBX 11 8 1 0
BITMAP
BDC0
C620
8420
8420
8420
8420
8420
8420
ENDCHAR

STARTCHAR n
ENCODING 110
SWIDTH 610 0
DWIDTH 9 0
BBX 7 8 1 0
BITMAP
BC
C2
82
82
82
82
82
82
ENDCHAR

STARTCHAR o
ENCODING 111
SWIDTH 655 0
DWIDTH 9 0
BBX 8 8 1 0
BITMAP
3C
42
81
81
81
81
42
3C
ENDCHAR

STARTCHAR p
ENCODING 112
SWIDTH 682 0
DWIDTH 10 0
BBX 8 11 1 -3
BITMAP
BC
C2
81
81
81
81
C2
BC
80
80
80
ENDCHAR

STARTCHAR q
ENCODING 113
SWIDTH 682 0
DWIDTH 10 0
BBX 8 11 1 -3
BITMAP
3D
43
81
81
81
81
43
3D
01
01
01
ENDCHAR

STARTCHAR r
ENCODING 114
SWIDTH 301 0
DWIDTH 4 0
BBX 3 8 1 0
BITMAP
A0
C0
80
80
80
80
80
80
ENDCHAR

STARTCHAR s
ENCODING 115
SWIDTH 388 0
DWIDTH 5 0
BBX 5 8 0 0
BITMAP
70
88
80
60
10
08
88
70
ENDCHAR

STARTCHAR t
ENCODING 116
SWIDTH 339 0
DWIDTH 5 0
BBX 3 11 1 0
BITMAP
40
40
40
E0
40
40
40
40
40
40
40
ENDCHAR

STARTCHAR u
ENCODING 117
SWIDTH 608 0
DWIDTH 9 0
BBX 7 8 1 0
BITMAP
82
82
82
82
82
82
86
7A
ENDCHAR

STARTCHAR v
ENCODING 118
SWIDTH 554 0
DWIDTH 8 0
BBX 8 8 0 0
BITMAP
81
42
42
24
24
24
18
18
ENDCHAR

STARTCHAR w
ENCODING 119
SWIDTH 831 0
DWIDTH 12 0
BBX 11 8 0 0
BITMAP
8020
C620
4620
4640
2940
2940
2940
1080
ENDCHAR

STARTCHAR x
ENCODING 120
SWIDTH 480 0
DWIDTH 7 0
BBX 6 8 0 0
BITMAP
84
48
48
30
30
48
48
84
ENDCHAR

STARTCHAR y
ENCODING 121
SWIDTH 536 0
DWIDTH 8 0
BBX 7 11 0 -3
BITMAP
82
82
44
44
28
28
28
10
10
20
20
ENDCHAR

STARTCHAR z
ENCODING 122
SWIDTH 425 0
DWIDTH 6 0
BBX 6 8 0 0
BITMAP
FC
04
08
10
20
40
80
FC
ENDCHAR

STARTCHAR braceleft
ENCODING 123
SWIDTH 351 0
DWIDTH 5 0
BBX 3 13 1 -2
BITMAP
60
40
40
40
40
40
80
40
40
40
40
40
60
ENDCHAR

STARTCHAR bar
ENCODING 124
SWIDTH 672 0
DWIDTH 9 0
BBX 1 11 4 0
BITMAP
80
80
80
80
80
80
80
80
80
80
80
ENDCHAR

STARTCHAR braceright
ENCODING 125
SWIDTH 351 0
DWIDTH 5 0
BBX 3 13 1 -2
BITMAP
C0
40
40
40
40
40
20
40
40
40
40
40
C0
ENDCHAR

STARTCHAR asciitilde
ENCODING 126
SWIDTH 606 0
DWIDTH 8 0
BBX 7 2 1 4
BITMAP
72
9C
ENDCHAR

STARTCHAR exclamdown
ENCODING 161
SWIDTH 295 0
DWIDTH 4 0
BBX 1 11 2 -3
BITMAP
80
80
00
80
80
80
80
80
80
80
80
ENDCHAR

STARTCHAR cent
ENCODING 162
SWIDTH 554 0
DWIDTH 8 0
BBX 6 8 1 3
BITMAP
10
78
84
80
80
84
78
10
ENDCHAR

STARTCHAR sterling
ENCODING 163
SWIDTH 554 0
DWIDTH 8 0
BBX 7 11 1 0
BITMAP
78
84
80
80
40
F0
20
22
22
42
FC
ENDCHAR

STARTCHAR currency
ENCODING 164
SWIDTH 554 0
DWIDTH 8 0
BBX 7 7 0 1
BITMAP
BA
44
82
82
82
44
BA
ENDCHAR

STARTCHAR yen
ENCODING 165
SWIDTH 554 0
DWIDTH 8 0
BBX 9 11 0 0
BITMAP
8080
4100
4100
2200
7700
1400
7F00
0800
0800
0800
0800
ENDCHAR

STARTCHAR brokenbar
ENCODING 166
SWIDTH 672 0
DWIDTH 8 0
BBX 1 11 4 0
BITMAP
80
80
80
80
80
00
00
80
80
80
80
ENDCHAR

STARTCHAR section
ENCODING 167
SWIDTH 615 0
DWIDTH 9 0
BBX 7 13 1 -2
BITMAP
3C
42
40
60
58
86
82
72
0C
02
02
42
3C
ENDCHAR

STARTCHAR dieresis
ENCODING 168
SWIDTH 369 0
DWIDTH 5 0
BBX 3 2 1 9
BITMAP
A0
A0
ENDCHAR

STARTCHAR copyright
ENCODING 169
SWIDTH 747 0
DWIDTH 10 0
BBX 11 11 0 0
BITMAP
1F00
2080
4E40
9920
9020
9020
9920
8E20
4040
2080
1F00
ENDCHAR

STARTCHAR ordfeminine
ENCODING 170
SWIDTH 369 0
DWIDTH 5 0
BBX 5 6 0 5
BITMAP
78
88
88
78
00
F8
ENDCHAR

STARTCHAR guillemotleft
ENCODING 171
SWIDTH 425 0
DWIDTH 6 0
BBX 4 6 1 2
BITMAP
50
50
A0
A0
50
50
ENDCHAR

STARTCHAR logicalnot
ENCODING 172
SWIDTH 606 0
DWIDTH 8 0
BBX 7 4 1 3
BITMAP
FE
02
02
02
ENDCHAR

STARTCHAR hyphen
ENCODING 173
SWIDTH 332 0
DWIDTH 5 0
BBX 4 1 0 4
BITMAP
F0
ENDCHAR

STARTCHAR registered
ENCODING 174
SWIDTH 747 0
DWIDTH 10 0
BBX 11 11 0 0
BITMAP
1F00
2080
4E40
8920
8920
8B20
8A20
8A20
4940
2080
1F00
ENDCHAR

STARTCHAR macron
ENCODING 175
SWIDTH 485 0
DWIDTH 7 0
BBX 5 1 1 9
BITMAP
F8
ENDCHAR

STARTCHAR degree
ENCODING 176
SWIDTH 400 0
DWIDTH 8 0
BBX 5 5 1 6
BITMAP
70
88
88
88
70
ENDCHAR

STARTCHAR plusminus
ENCODING 177
SWIDTH 606 0
DWIDTH 8 0
BBX 7 8 1 0
BITMAP
10
10
FE
10
10
10
00
FE
ENDCHAR

STARTCHAR twosuperior
ENCODING 178
SWIDTH 332 0
DWIDTH 5 0
BBX 4 6 -3 5
BITMAP
60
90
10
20
40
F0
ENDCHAR

STARTCHAR threesuperior
ENCODING 179
SWIDTH 332 0
DWIDTH 5 0
BBX 4 6 -3 5
BITMAP
60
90
20
10
90
60
ENDCHAR

STARTCHAR acute
ENCODING 180
SWIDTH 375 0
DWIDTH 5 0
BBX 3 2 1 9
BITMAP
60
C0
ENDCHAR

STARTCHAR mu
ENCODING 181
SWIDTH 608 0
DWIDTH 9 0
BBX 7 11 1 -3
BITMAP
82
82
82
82
82
82
C6
BA
80
80
80
ENDCHAR

STARTCHAR paragraph
ENCODING 182
SWIDTH 564 0
DWIDTH 8 0
BBX 7 13 0 -2
BITMAP
7E
F2
F2
F2
72
12
12
12
12
12
12
12
12
ENDCHAR

STARTCHAR periodcentered
ENCODING 183
SWIDTH 277 0
DWIDTH 7 0
BBX 1 2 3 4
BITMAP
80
80
ENDCHAR

STARTCHAR cedilla
ENCODING 184
SWIDTH 324 0
DWIDTH 5 0
BBX 2 3 1 -3
BITMAP
C0
40
C0
ENDCHAR

STARTCHAR onesuperior
ENCODING 185
SWIDTH 332 0
DWIDTH 5 0
BBX 2 6 -4 5
BITMAP
C0
40
40
40
40
40
ENDCHAR

STARTCHAR ordmasculine
ENCODING 186
SWIDTH 369 0
DWIDTH 5 0
BBX 5 6 0 5
BITMAP
70
88
88
70
00
F8
ENDCHAR

STARTCHAR guillemotright
ENCODING 187
SWIDTH 425 0
DWIDTH 6 0
BBX 4 6 1 2
BITMAP
A0
A0
50
50
A0
A0
ENDCHAR

STARTCHAR onequarter
ENCODING 188
SWIDTH 831 0
DWIDTH 12 0
BBX 11 11 5 0
BITMAP
C100
4200
4200
4400
4400
4840
08C0
1140
1240
23E0
2040
ENDCHAR

STARTCHAR onehalf
ENCODING 189
SWIDTH 831 0
DWIDTH 12 0
BBX 11 11 5 0
BITMAP
C100
4200
4200
4400
4400
48C0
0920
1020
1040
2080
21E0
ENDCHAR

STARTCHAR threequarters
ENCODING 190
SWIDTH 831 0
DWIDTH 12 0
BBX 11 11 5 0
BITMAP
6100
9200
2200
1400
9400
6840
08C0
1140
1240
23E0
2040
ENDCHAR

STARTCHAR questiondown
ENCODING 191
SWIDTH 591 0
DWIDTH 8 0
BBX 6 11 1 -3
BITMAP
20
20
00
20
20
40
80
80
84
84
78
ENDCHAR

STARTCHAR Agrave
ENCODING 192
SWIDTH 740 0
DWIDTH 10 0
BBX 10 14 0 0
BITMAP
0C00
0600
0000
0C00
0C00
1200
1200
1200
2100
3F00
4080
4080
4080
8040
ENDCHAR

STARTCHAR Aacute
ENCODING 193
SWIDTH 740 0
DWIDTH 10 0
BBX 10 14 0 0
BITMAP
0600
0C00
0000
0C00
0C00
1200
1200
1200
2100
3F00
4080
4080
4080
8040
ENDCHAR

STARTCHAR Acircumflex
ENCODING 194
SWIDTH 740 0
DWIDTH 10 0
BBX 10 14 0 0
BITMAP
0E00
1B00
0000
0C00
0C00
1200
1200
1200
2100
3F00
4080
4080
4080
8040
ENDCHAR

STARTCHAR Atilde
ENCODING 195
SWIDTH 740 0
DWIDTH 10 0
BBX 10 13 0 0
BITMAP
1E00
0000
0C00
0C00
1200
1200
1200
2100
3F00
4080
4080
4080
8040
ENDCHAR

STARTCHAR Adieresis
ENCODING 196
SWIDTH 740 0
DWIDTH 10 0
BBX 10 14 0 0
BITMAP
0A00
0A00
0000
0C00
0C00
1200
1200
1200
2100
3F00
4080
4080
4080
8040
ENDCHAR

STARTCHAR Aring
ENCODING 197
SWIDTH 740 0
DWIDTH 10 0
BBX 10 15 0 0
BITMAP
0E00
0A00
0E00
0000
0C00
0C00
1200
1200
1200
2100
3F00
4080
4080
4080
8040
ENDCHAR

STARTCHAR AE
ENCODING 198
SWIDTH 992 0
DWIDTH 14 0
BBX 12 11 1 0
BITMAP
03F0
0300
0500
0900
0900
11F0
1F00
2100
4100
4100
81F0
ENDCHAR

STARTCHAR Ccedilla
ENCODING 199
SWIDTH 813 0
DWIDTH 11 0
BBX 10 14 1 -3
BITMAP
1F00
2080
4040
8000
8000
8000
8000
8000
4040
2080
1F00
0800
0400
0C00
ENDCHAR

STARTCHAR Egrave
ENCODING 200
SWIDTH 536 0
DWIDTH 8 0
BBX 5 14 1 0
BITMAP
60
30
00
F8
80
80
80
80
F8
80
80
80
80
F8
ENDCHAR

STARTCHAR Eacute
ENCODING 201
SWIDTH 536 0
DWIDTH 8 0
BBX 5 14 1 0
BITMAP
30
60
00
F8
80
80
80
80
F8
80
80
80
80
F8
ENDCHAR

STARTCHAR Ecircumflex
ENCODING 202
SWIDTH 536 0
DWIDTH 8 0
BBX 5 14 1 0
BITMAP
70
D8
00
F8
80
80
80
80
F8
80
80
80
80
F8
ENDCHAR

STARTCHAR Edieresis
ENCODING 203
SWIDTH 536 0
DWIDTH 8 0
BBX 5 14 1 0
BITMAP
50
50
00
F8
80
80
80
80
F8
80
80
80
80
F8
ENDCHAR

STARTCHAR Igrave
ENCODING 204
SWIDTH 226 0
DWIDTH 3 0
BBX 3 14 2 0
BITMAP
C0
60
00
40
40
40
40
40
40
40
40
40
40
40
ENDCHAR

STARTCHAR Iacute
ENCODING 205
SWIDTH 226 0
DWIDTH 3 0
BBX 3 14 2 0
BITMAP
60
C0
00
40
40
40
40
40
40
40
40
40
40
40
ENDCHAR

STARTCHAR Icircumflex
ENCODING 206
SWIDTH 226 0
DWIDTH 3 0
BBX 5 14 3 0
BITMAP
70
D8
00
20
20
20
20
20
20
20
20
20
20
20
ENDCHAR

STARTCHAR Idieresis
ENCODING 207
SWIDTH 226 0
DWIDTH 3 0
BBX 3 14 2 0
BITMAP
A0
A0
00
40
40
40
40
40
40
40
40
40
40
40
ENDCHAR

STARTCHAR Eth
ENCODING 208
SWIDTH 790 0
DWIDTH 10 0
BBX 10 11 0 0
BITMAP
7E00
4100
4080
4040
4040
F040
4040
4040
4080
4100
7E00
ENDCHAR

STARTCHAR Ntilde
ENCODING 209
SWIDTH 740 0
DWIDTH 10 0
BBX 8 13 1 0
BITMAP
3C
00
C1
C1
A1
A1
91
89
89
85
85
83
81
ENDCHAR

STARTCHAR Ograve
ENCODING 210
SWIDTH 869 0
DWIDTH 12 0
BBX 11 14 1 0
BITMAP
0C00
0600
0000
1F00
2080
4040
8020
8020
8020
8020
8020
4040
2080
1F00
ENDCHAR

STARTCHAR Oacute
ENCODING 211
SWIDTH 869 0
DWIDTH 12 0
BBX 11 14 1 0
BITMAP
0600
0C00
0000
1F00
2080
4040
8020
8020
8020
8020
8020
4040
2080
1F00
ENDCHAR

STARTCHAR Ocircumflex
ENCODING 212
SWIDTH 869 0
DWIDTH 12 0
BBX 11 14 1 0
BITMAP
0E00
1B00
0000
1F00
2080
4040
8020
8020
8020
8020
8020
4040
2080
1F00
ENDCHAR

STARTCHAR Otilde
ENCODING 213
SWIDTH 869 0
DWIDTH 12 0
BBX 11 13 1 0
BITMAP
0F00
0000
1F00
2080
4040
8020
8020
8020
8020
8020
4040
2080
1F00
ENDCHAR

STARTCHAR Odieresis
ENCODING 214
SWIDTH 869 0
DWIDTH 12 0
BBX 11 14 1 0
BITMAP
0A00
0A00
0000
1F00
2080
4040
8020
8020
8020
8020
8020
4040
2080
1F00
ENDCHAR

STARTCHAR multiply
ENCODING 215
SWIDTH 606 0
DWIDTH 8 0
BBX 6 5 1 2
BITMAP
84
48
30
48
84
ENDCHAR

STARTCHAR Oslash
ENCODING 216
SWIDTH 868 0
DWIDTH 12 0
BBX 11 12 1 0
BITMAP
0020
1F40
2080
4140
8220
8220
8420
8820
9020
5040
2080
5F00
ENDCHAR

STARTCHAR Ugrave
ENCODING 217
SWIDTH 655 0
DWIDTH 9 0
BBX 7 14 1 0
BITMAP
30
18
00
82
82
82
82
82
82
82
82
82
44
38
ENDCHAR

STARTCHAR Uacute
ENCODING 218
SWIDTH 655 0
DWIDTH 9 0
BBX 7 14 1 0
BITMAP
18
30
00
82
82
82
82
82
82
82
82
82
44
38
ENDCHAR

STARTCHAR Ucircumflex
ENCODING 219
SWIDTH 655 0
DWIDTH 9 0
BBX 7 14 1 0
BITMAP
38
6C
00
82
82
82
82
82
82
82
82
82
44
38
ENDCHAR

STARTCHAR Udieresis
ENCODING 220
SWIDTH 655 0
DWIDTH 9 0
BBX 7 14 1 0
BITMAP
28
28
00
82
82
82
82
82
82
82
82
82
44
38
ENDCHAR

STARTCHAR Yacute
ENCODING 221
SWIDTH 592 0
DWIDTH 8 0
BBX 9 14 0 0
BITMAP
0C00
1800
0000
8080
4100
4100
2200
1400
1400
0800
0800
0800
0800
0800
ENDCHAR

STARTCHAR Thorn
ENCODING 222
SWIDTH 592 0
DWIDTH 8 0
BBX 7 11 1 0
BITMAP
80
FC
82
82
82
82
FC
80
80
80
80
ENDCHAR

STARTCHAR germandbls
ENCODING 223
SWIDTH 554 0
DWIDTH 8 0
BBX 6 11 1 0
BITMAP
70
88
88
88
88
B0
88
84
84
C4
B8
ENDCHAR

STARTCHAR agrave
ENCODING 224
SWIDTH 683 0
DWIDTH 10 0
BBX 8 11 1 0
BITMAP
18
0C
00
3D
43
81
81
81
81
43
3D
ENDCHAR

STARTCHAR aacute
ENCODING 225
SWIDTH 683 0
DWIDTH 10 0
BBX 8 11 1 0
BITMAP
0C
18
00
3D
43
81
81
81
81
43
3D
ENDCHAR

STARTCHAR acircumflex
ENCODING 226
SWIDTH 683 0
DWIDTH 10 0
BBX 8 11 1 0
BITMAP
1C
36
00
3D
43
81
81
81
81
43
3D
ENDCHAR

STARTCHAR atilde
ENCODING 227
SWIDTH 683 0
DWIDTH 10 0
BBX 8 10 1 0
BITMAP
3C
00
3D
43
81
81
81
81
43
3D
ENDCHAR

STARTCHAR adieresis
ENCODING 228
SWIDTH 683 0
DWIDTH 10 0
BBX 8 11 1 0
BITMAP
14
14
00
3D
43
81
81
81
81
43
3D
ENDCHAR

STARTCHAR aring
ENCODING 229
SWIDTH 683 0
DWIDTH 10 0
BBX 8 12 1 0
BITMAP
1C
14
1C
00
3D
43
81
81
81
81
43
3D
ENDCHAR

STARTCHAR ae
ENCODING 230
SWIDTH 1157 0
DWIDTH 16 0
BBX 14 8 1 0
BITMAP
3D70
4388
8104
81FC
8100
8100
4384
3D78
ENDCHAR

STARTCHAR ccedilla
ENCODING 231
SWIDTH 647 0
DWIDTH 9 0
BBX 7 11 1 -3
BITMAP
3C
42
80
80
80
80
42
3C
10
08
10
ENDCHAR

STARTCHAR egrave
ENCODING 232
SWIDTH 650 0
DWIDTH 9 0
BBX 8 11 1 0
BITMAP
30
18
00
3C
42
81
FF
80
80
43
3C
ENDCHAR

STARTCHAR eacute
ENCODING 233
SWIDTH 650 0
DWIDTH 9 0
BBX 8 11 1 0
BITMAP
18
30
00
3C
42
81
FF
80
80
43
3C
ENDCHAR

STARTCHAR ecircumflex
ENCODING 234
SWIDTH 650 0
DWIDTH 9 0
BBX 8 11 1 0
BITMAP
38
6C
00
3C
42
81
FF
80
80
43
3C
ENDCHAR

STARTCHAR edieresis
ENCODING 235
SWIDTH 650 0
DWIDTH 9 0
BBX 8 11 1 0
BITMAP
28
28
00
3C
42
81
FF
80
80
43
3C
ENDCHAR

STARTCHAR igrave
ENCODING 236
SWIDTH 200 0
DWIDTH 3 0
BBX 3 11 2 0
BITMAP
C0
60
00
40
40
40
40
40
40
40
40
ENDCHAR

STARTCHAR iacute
ENCODING 237
SWIDTH 200 0
DWIDTH 3 0
BBX 3 11 2 0
BITMAP
60
C0
00
40
40
40
40
40
40
40
40
ENDCHAR

STARTCHAR icircumflex
ENCODING 238
SWIDTH 200 0
DWIDTH 3 0
BBX 5 11 3 0
BITMAP
70
D8
00
20
20
20
20
20
20
20
20
ENDCHAR

STARTCHAR idieresis
ENCODING 239
SWIDTH 200 0
DWIDTH 3 0
BBX 3 11 2 0
BITMAP
A0
A0
00
40
40
40
40
40
40
40
40
ENDCHAR

STARTCHAR eth
ENCODING 240
SWIDTH 655 0
DWIDTH 9 0
BBX 8 11 1 0
BITMAP
24
18
04
3E
42
81
81
81
81
42
3C
ENDCHAR

STARTCHAR ntilde
ENCODING 241
SWIDTH 610 0
DWIDTH 9 0
BBX 7 10 1 0
BITMAP
3C
00
BC
C2
82
82
82
82
82
82
ENDCHAR

STARTCHAR ograve
ENCODING 242
SWIDTH 655 0
DWIDTH 9 0
BBX 8 11 1 0
BITMAP
30
18
00
3C
42
81
81
81
81
42
3C
ENDCHAR

STARTCHAR oacute
ENCODING 243
SWIDTH 655 0
DWIDTH 9 0
BBX 8 11 1 0
BITMAP
18
30
00
3C
42
81
81
81
81
42
3C
ENDCHAR

STARTCHAR ocircumflex
ENCODING 244
SWIDTH 655 0
DWIDTH 9 0
BBX 8 11 1 0
BITMAP
38
6C
00
3C
42
81
81
81
81
42
3C
ENDCHAR

STARTCHAR otilde
ENCODING 245
SWIDTH 655 0
DWIDTH 9 0
BBX 8 10 1 0
BITMAP
3C
00
3C
42
81
81
81
81
42
3C
ENDCHAR

STARTCHAR odieresis
ENCODING 246
SWIDTH 655 0
DWIDTH 9 0
BBX 8 11 1 0
BITMAP
28
28
00
3C
42
81
81
81
81
42
3C
ENDCHAR

STARTCHAR divide
ENCODING 247
SWIDTH 606 0
DWIDTH 8 0
BBX 7 5 1 2
BITMAP
10
00
FE
00
10
ENDCHAR

STARTCHAR oslash
ENCODING 248
SWIDTH 653 0
DWIDTH 9 0
BBX 8 8 1 0
BITMAP
3D
42
85
89
91
A1
42
BC
ENDCHAR

STARTCHAR ugrave
ENCODING 249
SWIDTH 608 0
DWIDTH 9 0
BBX 7 11 1 0
BITMAP
30
18
00
82
82
82
82
82
82
86
7A
ENDCHAR

STARTCHAR uacute
ENCODING 250
SWIDTH 608 0
DWIDTH 9 0
BBX 7 11 1 0
BITMAP
18
30
00
82
82
82
82
82
82
86
7A
ENDCHAR

STARTCHAR ucircumflex
ENCODING 251
SWIDTH 608 0
DWIDTH 9 0
BBX 7 11 1 0
BITMAP
38
6C
00
82
82
82
82
82
82
86
7A
ENDCHAR

STARTCHAR udieresis
ENCODING 252
SWIDTH 608 0
DWIDTH 9 0
BBX 7 11 1 0
BITMAP
28
28
00
82
82
82
82
82
82
86
7A
ENDCHAR

STARTCHAR yacute
ENCODING 253
SWIDTH 536 0
DWIDTH 8 0
BBX 7 14 0 -3
BITMAP
18
30
00
82
82
44
44
28
28
28
10
10
20
20
ENDCHAR

STARTCHAR thorn
ENCODING 254
SWIDTH 682 0
DWIDTH 10 0
BBX 8 14 1 -3
BITMAP
80
80
80
BC
C2
81
81
81
81
C2
BC
80
80
80
ENDCHAR

STARTCHAR ydieresis
ENCODING 255
SWIDTH 536 0
DWIDTH 8 0
BBX 7 14 0 -3
BITMAP
28
28
00
82
82
44
44
28
28
28
10
10
20
20
ENDCHAR
ENDFONT
